<?xml version="1.0" standalone="no"?><!-- Generator: Gravit.io --><svg xmlns="http://www.w3.org/2000/svg" xmlns:xlink="http://www.w3.org/1999/xlink" style="isolation:isolate" viewBox="294.93 476.49 296.905 25.559" width="296.905" height="25.559"><defs><clipPath id="_clipPath_gjiRbdmJ2uDFltrf9XXTz9754WgiD2LA"><rect x="294.93" y="476.49" width="296.905" height="25.559"/></clipPath></defs><g clip-path="url(#_clipPath_gjiRbdmJ2uDFltrf9XXTz9754WgiD2LA)"><path d=" M 505.646 476.913 L 511.118 476.913 L 503.034 501.625 L 496.891 501.625 L 491.455 484.892 L 485.842 501.625 L 479.735 501.625 L 471.615 476.913 L 477.546 476.913 L 483.124 494.282 L 488.948 476.913 L 494.244 476.913 L 499.892 494.423 L 505.646 476.913 L 505.646 476.913 Z  M 521.244 501.625 L 521.244 476.913 L 526.963 476.913 L 526.963 501.625 L 521.244 501.625 L 521.244 501.625 Z  M 539.241 501.625 L 539.241 476.913 L 544.96 476.913 L 544.96 496.965 L 557.352 496.965 L 557.352 501.625 L 539.241 501.625 L 539.241 501.625 Z  M 566.983 501.625 L 566.983 476.913 L 578.209 476.913 L 578.209 476.913 Q 582.233 476.913 585.322 478.449 L 585.322 478.449 L 585.322 478.449 Q 588.411 479.985 590.123 482.774 L 590.123 482.774 L 590.123 482.774 Q 591.835 485.562 591.835 489.269 L 591.835 489.269 L 591.835 489.269 Q 591.835 492.976 590.123 495.765 L 590.123 495.765 L 590.123 495.765 Q 588.411 498.554 585.322 500.089 L 585.322 500.089 L 585.322 500.089 Q 582.233 501.625 578.209 501.625 L 578.209 501.625 L 566.983 501.625 L 566.983 501.625 Z  M 572.702 496.93 L 577.926 496.93 L 577.926 496.93 Q 581.633 496.93 583.84 494.865 L 583.84 494.865 L 583.84 494.865 Q 586.046 492.799 586.046 489.269 L 586.046 489.269 L 586.046 489.269 Q 586.046 485.739 583.84 483.674 L 583.84 483.674 L 583.84 483.674 Q 581.633 481.609 577.926 481.609 L 577.926 481.609 L 572.702 481.609 L 572.702 496.93 L 572.702 496.93 Z  M 311.946 476.913 L 317.594 476.913 L 317.594 501.625 L 312.899 501.625 L 300.578 486.622 L 300.578 501.625 L 294.93 501.625 L 294.93 476.913 L 299.661 476.913 L 311.946 491.917 L 311.946 476.913 L 311.946 476.913 Z  M 341.84 502.049 L 341.84 502.049 Q 337.993 502.049 334.904 500.389 L 334.904 500.389 L 334.904 500.389 Q 331.815 498.73 330.067 495.818 L 330.067 495.818 L 330.067 495.818 Q 328.32 492.905 328.32 489.269 L 328.32 489.269 L 328.32 489.269 Q 328.32 485.633 330.067 482.721 L 330.067 482.721 L 330.067 482.721 Q 331.815 479.808 334.904 478.149 L 334.904 478.149 L 334.904 478.149 Q 337.993 476.49 341.84 476.49 L 341.84 476.49 L 341.84 476.49 Q 345.688 476.49 348.76 478.149 L 348.76 478.149 L 348.76 478.149 Q 351.831 479.808 353.596 482.721 L 353.596 482.721 L 353.596 482.721 Q 355.361 485.633 355.361 489.269 L 355.361 489.269 L 355.361 489.269 Q 355.361 492.905 353.596 495.818 L 353.596 495.818 L 353.596 495.818 Q 351.831 498.73 348.76 500.389 L 348.76 500.389 L 348.76 500.389 Q 345.688 502.049 341.84 502.049 L 341.84 502.049 L 341.84 502.049 Z  M 341.84 497.177 L 341.84 497.177 Q 344.029 497.177 345.794 496.171 L 345.794 496.171 L 345.794 496.171 Q 347.559 495.165 348.566 493.364 L 348.566 493.364 L 348.566 493.364 Q 349.572 491.564 349.572 489.269 L 349.572 489.269 L 349.572 489.269 Q 349.572 486.975 348.566 485.174 L 348.566 485.174 L 348.566 485.174 Q 347.559 483.374 345.794 482.368 L 345.794 482.368 L 345.794 482.368 Q 344.029 481.361 341.84 481.361 L 341.84 481.361 L 341.84 481.361 Q 339.652 481.361 337.887 482.368 L 337.887 482.368 L 337.887 482.368 Q 336.121 483.374 335.115 485.174 L 335.115 485.174 L 335.115 485.174 Q 334.109 486.975 334.109 489.269 L 334.109 489.269 L 334.109 489.269 Q 334.109 491.564 335.115 493.364 L 335.115 493.364 L 335.115 493.364 Q 336.121 495.165 337.887 496.171 L 337.887 496.171 L 337.887 496.171 Q 339.652 497.177 341.84 497.177 L 341.84 497.177 L 341.84 497.177 Z  M 384.232 488.775 L 384.232 488.775 Q 386.35 489.446 387.551 491.017 L 387.551 491.017 L 387.551 491.017 Q 388.751 492.588 388.751 494.882 L 388.751 494.882 L 388.751 494.882 Q 388.751 498.13 386.227 499.878 L 386.227 499.878 L 386.227 499.878 Q 383.703 501.625 378.866 501.625 L 378.866 501.625 L 366.087 501.625 L 366.087 476.913 L 378.16 476.913 L 378.16 476.913 Q 382.679 476.913 385.097 478.643 L 385.097 478.643 L 385.097 478.643 Q 387.515 480.373 387.515 483.338 L 387.515 483.338 L 387.515 483.338 Q 387.515 485.139 386.65 486.551 L 386.65 486.551 L 386.65 486.551 Q 385.785 487.963 384.232 488.775 L 384.232 488.775 L 384.232 488.775 Z  M 377.454 481.22 L 371.77 481.22 L 371.77 487.045 L 377.454 487.045 L 377.454 487.045 Q 379.572 487.045 380.667 486.304 L 380.667 486.304 L 380.667 486.304 Q 381.761 485.562 381.761 484.115 L 381.761 484.115 L 381.761 484.115 Q 381.761 482.668 380.667 481.944 L 380.667 481.944 L 380.667 481.944 Q 379.572 481.22 377.454 481.22 L 377.454 481.22 L 377.454 481.22 Z  M 378.443 497.318 L 378.443 497.318 Q 380.702 497.318 381.849 496.577 L 381.849 496.577 L 381.849 496.577 Q 382.997 495.835 382.997 494.282 L 382.997 494.282 L 382.997 494.282 Q 382.997 491.211 378.443 491.211 L 378.443 491.211 L 371.77 491.211 L 371.77 497.318 L 378.443 497.318 L 378.443 497.318 Z  M 399.512 501.625 L 399.512 476.913 L 405.231 476.913 L 405.231 496.965 L 417.622 496.965 L 417.622 501.625 L 399.512 501.625 L 399.512 501.625 Z  M 432.937 497.036 L 446.387 497.036 L 446.387 501.625 L 427.253 501.625 L 427.253 476.913 L 445.928 476.913 L 445.928 481.503 L 432.937 481.503 L 432.937 486.869 L 444.41 486.869 L 444.41 491.317 L 432.937 491.317 L 432.937 497.036 L 432.937 497.036 Z " fill-rule="evenodd" fill="rgb(0,0,0)"/></g></svg>