<?xml version="1.0" standalone="no"?><!-- Generator: Gravit.io --><svg xmlns="http://www.w3.org/2000/svg" xmlns:xlink="http://www.w3.org/1999/xlink" style="isolation:isolate" viewBox="0 0 24 24" width="24" height="24"><defs><clipPath id="_clipPath_XCdjuCz635GnALjg8J22DgFo6GSHR7B8"><rect width="24" height="24"/></clipPath></defs><g clip-path="url(#_clipPath_XCdjuCz635GnALjg8J22DgFo6GSHR7B8)"><path d=" M 22.676 0 L 1.324 0 C 0.593 0 0 0.593 0 1.324 L 0 22.676 C 0 23.408 0.593 24 1.324 24 L 12.818 24 L 12.818 14.706 L 9.689 14.706 L 9.689 11.085 L 12.818 11.085 L 12.818 8.41 C 12.818 5.311 14.712 3.625 17.477 3.625 C 18.802 3.625 19.941 3.722 20.273 3.766 L 20.273 7.006 L 18.352 7.006 C 16.852 7.006 16.56 7.727 16.56 8.777 L 16.56 11.088 L 20.144 11.088 L 19.679 14.718 L 16.56 14.718 L 16.56 24 L 22.675 24 C 23.408 24 24 23.408 24 22.676 L 24 1.324 C 24 0.593 23.408 0 22.676 0 Z " fill="rgb(34,34,34)"/></g></svg>