<?xml version="1.0" standalone="no"?><!-- Generator: Gravit.io --><svg xmlns="http://www.w3.org/2000/svg" xmlns:xlink="http://www.w3.org/1999/xlink" style="isolation:isolate" viewBox="0 0 24 24" width="24" height="24"><defs><clipPath id="_clipPath_QRmYEY1WaQsm6buxYDU7AHeUMbOmQ4HS"><rect width="24" height="24"/></clipPath></defs><g clip-path="url(#_clipPath_QRmYEY1WaQsm6buxYDU7AHeUMbOmQ4HS)"><path d=" M 12 0 C 8.74 0 8.333 0.015 7.053 0.072 C 5.775 0.132 4.905 0.333 4.14 0.63 C 3.351 0.936 2.681 1.347 2.014 2.014 C 1.347 2.681 0.935 3.35 0.63 4.14 C 0.333 4.905 0.131 5.775 0.072 7.053 C 0.012 8.333 0 8.74 0 12 C 0 15.26 0.015 15.667 0.072 16.947 C 0.132 18.224 0.333 19.095 0.63 19.86 C 0.936 20.648 1.347 21.319 2.014 21.986 C 2.681 22.652 3.35 23.065 4.14 23.37 C 4.906 23.666 5.776 23.869 7.053 23.928 C 8.333 23.988 8.74 24 12 24 C 15.26 24 15.667 23.985 16.947 23.928 C 18.224 23.868 19.095 23.666 19.86 23.37 C 20.648 23.064 21.319 22.652 21.986 21.986 C 22.652 21.319 23.065 20.651 23.37 19.86 C 23.666 19.095 23.869 18.224 23.928 16.947 C 23.988 15.667 24 15.26 24 12 C 24 8.74 23.985 8.333 23.928 7.053 C 23.868 5.776 23.666 4.904 23.37 4.14 C 23.064 3.351 22.652 2.681 21.986 2.014 C 21.319 1.347 20.651 0.935 19.86 0.63 C 19.095 0.333 18.224 0.131 16.947 0.072 C 15.667 0.012 15.26 0 12 0 Z  M 12 2.16 C 15.203 2.16 15.585 2.176 16.85 2.231 C 18.02 2.286 18.655 2.48 19.077 2.646 C 19.639 2.863 20.037 3.123 20.459 3.542 C 20.878 3.962 21.138 4.361 21.355 4.923 C 21.519 5.345 21.715 5.98 21.768 7.15 C 21.825 8.416 21.838 8.796 21.838 12 C 21.838 15.204 21.823 15.585 21.764 16.85 C 21.703 18.02 21.508 18.655 21.343 19.077 C 21.119 19.639 20.864 20.037 20.444 20.459 C 20.025 20.878 19.62 21.138 19.064 21.355 C 18.644 21.519 17.999 21.715 16.829 21.768 C 15.555 21.825 15.18 21.838 11.97 21.838 C 8.759 21.838 8.384 21.823 7.111 21.764 C 5.94 21.703 5.295 21.508 4.875 21.343 C 4.306 21.119 3.915 20.864 3.496 20.444 C 3.075 20.025 2.806 19.62 2.596 19.064 C 2.431 18.644 2.237 17.999 2.176 16.829 C 2.131 15.569 2.115 15.18 2.115 11.985 C 2.115 8.789 2.131 8.399 2.176 7.124 C 2.237 5.954 2.431 5.31 2.596 4.89 C 2.806 4.32 3.075 3.93 3.496 3.509 C 3.915 3.09 4.306 2.82 4.875 2.611 C 5.295 2.445 5.926 2.25 7.096 2.19 C 8.371 2.145 8.746 2.13 11.955 2.13 L 12 2.16 L 12 2.16 Z  M 12 5.838 C 8.595 5.838 5.838 8.598 5.838 12 C 5.838 15.405 8.598 18.162 12 18.162 C 15.405 18.162 18.162 15.402 18.162 12 C 18.162 8.595 15.402 5.838 12 5.838 Z  M 12 16 C 9.79 16 8 14.21 8 12 C 8 9.79 9.79 8 12 8 C 14.21 8 16 9.79 16 12 C 16 14.21 14.21 16 12 16 Z  M 19.846 5.595 C 19.846 6.39 19.2 7.035 18.406 7.035 C 17.611 7.035 16.966 6.389 16.966 5.595 C 16.966 4.801 17.612 4.156 18.406 4.156 C 19.199 4.155 19.846 4.801 19.846 5.595 Z " fill="rgb(34,34,34)"/></g></svg>